<svg width="103" height="123" viewBox="0 0 103 123" fill="none" xmlns="http://www.w3.org/2000/svg">
<g clip-path="url(#clip0_20_47)">
<path fill-rule="evenodd" clip-rule="evenodd" d="M102.855 21.6703C102.855 21.5401 102.739 21.5398 102.739 21.4095C102.739 21.3923 102.736 21.3753 102.73 21.3593C102.723 21.3433 102.714 21.3291 102.701 21.3169C102.689 21.3047 102.675 21.2951 102.659 21.2887C102.643 21.2822 102.626 21.2791 102.608 21.2795C102.55 21.2593 102.496 21.2272 102.451 21.1847C102.406 21.1423 102.371 21.0907 102.347 21.0335H102.231L87.5064 15.1853V15.0693C87.5064 14.0416 86.9987 12.0147 83.1978 10.4948C79.7081 9.23596 75.9841 8.75703 72.2885 9.09104L64.803 6.051C64.803 5.0377 64.2951 2.9964 60.4943 1.47645C54.7446 -0.550094 48.4728 -0.550094 42.7231 1.47645C39.0529 2.9964 38.4146 5.0377 38.4146 6.051L30.9289 9.09104C27.2348 8.822 23.5245 9.29918 20.0198 10.4948C16.3495 12.0147 15.711 14.0416 15.711 15.0693V15.1853L0.870353 21.1635H0.739839C0.675009 21.1654 0.613393 21.192 0.567533 21.2378C0.521673 21.2835 0.494983 21.3448 0.493156 21.4095C0.493553 21.4267 0.490545 21.4444 0.484124 21.4604C0.477704 21.4764 0.467994 21.4906 0.45579 21.5028C0.443587 21.515 0.429132 21.5247 0.413112 21.5311C0.397092 21.5375 0.379897 21.5407 0.362642 21.5403C0.317347 21.5658 0.280714 21.6041 0.257452 21.6505C0.23419 21.697 0.225409 21.7489 0.232128 21.8004V21.9163C0.232128 22.0466 0.101437 22.1769 0.101437 22.3072V40.8506C0.0837306 41.0995 0.149876 41.3468 0.289151 41.5539C0.428425 41.7611 0.632904 41.9163 0.870353 41.9943L24.72 51.5194C23.0751 51.7291 21.4562 52.1072 19.8891 52.6482C16.2188 54.1826 15.5805 56.2094 15.5805 57.2227V57.3528L0.739839 63.3169H0.609326C0.544125 63.3246 0.483692 63.3548 0.438613 63.4025C0.393533 63.4501 0.366611 63.5124 0.362642 63.5778L0.232128 63.7078C0.186569 63.7292 0.149071 63.7645 0.125521 63.8089C0.101972 63.8533 0.0935188 63.9042 0.101437 63.9538V64.0838C0.101437 64.2141 -0.0145551 64.3448 -0.0145551 64.4606V101.678C-0.035236 101.925 0.0278868 102.172 0.164658 102.379C0.301429 102.587 0.503966 102.742 0.739839 102.821L50.9777 122.884C51.1424 122.944 51.3124 122.987 51.4854 123.014C51.5745 123.032 51.6663 123.029 51.7541 123.007C51.8419 122.984 51.9235 122.942 51.9932 122.884L102.231 102.821C102.457 102.728 102.649 102.568 102.784 102.365C102.918 102.161 102.989 101.922 102.985 101.678V64.5906C102.994 64.5221 102.987 64.4523 102.964 64.3871C102.942 64.3218 102.904 64.2631 102.855 64.2146V64.0838C102.855 63.9536 102.739 63.954 102.739 63.8237C102.738 63.8074 102.735 63.7912 102.728 63.7764C102.721 63.7615 102.711 63.7484 102.699 63.7375C102.687 63.7266 102.672 63.7178 102.657 63.7128C102.641 63.7077 102.625 63.7062 102.608 63.7078L102.347 63.447H102.231L87.5064 57.6136V57.4836C87.5064 56.4703 86.9987 54.429 83.1978 52.909C81.6722 52.2482 80.0419 51.8611 78.3816 51.7654L102.231 42.2402C102.458 42.1481 102.652 41.9892 102.786 41.785C102.921 41.5809 102.99 41.341 102.985 41.0966V22.3072C102.93 22.0974 102.887 21.8849 102.855 21.6703ZM64.6723 8.84507L67.3417 9.85794C66.6893 10.009 66.0528 10.2222 65.4412 10.4948C65.2439 10.6122 65.0282 10.6961 64.803 10.7415V8.84507H64.6723ZM66.3261 12.898C71.4634 11.132 77.0452 11.132 82.1824 12.898C84.2134 13.6652 84.8516 14.5627 84.8516 15.0693C84.8516 15.576 84.0828 16.4593 82.1824 17.2265C77.0476 19.007 71.4609 19.007 66.3261 17.2265C64.2951 16.4593 63.6569 15.576 63.6569 15.0693C63.6569 14.5627 64.2951 13.6652 66.3261 12.898ZM63.6569 18.7462C64.2214 19.0979 64.819 19.3935 65.4412 19.629C71.1826 21.6746 77.4565 21.6746 83.1978 19.629C83.8244 19.4142 84.4195 19.1175 84.9676 18.7462V22.3072C84.9676 22.8138 84.2133 23.6972 82.3129 24.4644C77.1781 26.2449 71.5916 26.2449 66.4568 24.4644C65.8632 24.2504 65.3056 23.9477 64.803 23.5667C64.6437 22.8542 64.2925 22.1985 63.7874 21.6703V18.7462H63.6569ZM43.4921 3.89449C48.685 2.196 54.2859 2.196 59.4788 3.89449C61.5098 4.64723 62.1336 5.54435 62.1336 6.051C62.1336 6.55765 61.3793 7.44101 59.4788 8.20822C54.344 9.98872 48.7574 9.98872 43.6226 8.20822C41.5916 7.44101 40.9533 6.55765 40.9533 6.051C40.8228 5.54435 41.5916 4.64723 43.4921 3.89449ZM40.8228 9.72789C41.3635 10.124 41.9665 10.4275 42.6071 10.6255C48.3518 12.6522 54.6191 12.6522 60.3638 10.6255C60.9883 10.3999 61.5827 10.0983 62.1336 9.72789V12.5219C61.6449 13.1151 61.3022 13.8136 61.1327 14.5625C60.6217 14.9265 60.0658 15.2238 59.4788 15.4461C54.344 17.2266 48.7574 17.2266 43.6226 15.4461C43.0894 15.244 42.579 14.9865 42.0994 14.6785C41.9461 13.86 41.5462 13.1079 40.9533 12.5219V9.72789H40.8228ZM43.4921 21.9163C48.6881 20.2371 54.2828 20.2371 59.4788 21.9163C61.5098 22.6835 62.1336 23.5665 62.1336 24.0877C62.1336 24.6088 61.3793 25.4777 59.4788 26.2449C54.3416 28.0109 48.7598 28.0109 43.6226 26.2449C41.5916 25.4777 40.9533 24.5943 40.9533 24.0877C40.8228 23.5665 41.5916 22.6835 43.4921 21.9163ZM41.9689 19.8899V17.6026C42.23 17.7329 42.346 17.7331 42.6071 17.8634C43.5949 18.2457 44.6143 18.541 45.6536 18.7462C44.6187 18.9693 43.6008 19.2642 42.6071 19.629C42.3751 19.6584 42.155 19.7485 41.9689 19.8899ZM57.3173 18.7462C58.3522 18.5231 59.3701 18.2283 60.3638 17.8634C60.5599 17.7406 60.776 17.6522 61.0022 17.6026V20.0199C60.9426 19.902 60.8514 19.8034 60.7386 19.7344C60.6259 19.6653 60.496 19.6286 60.3638 19.629C59.376 19.2467 58.3566 18.9515 57.3173 18.7462ZM40.8228 27.8946C41.3905 28.2406 41.9875 28.5366 42.6071 28.7781C48.3518 30.8048 54.6191 30.8048 60.3638 28.7781C60.9903 28.5633 61.5854 28.2659 62.1336 27.8946V31.4414C62.1336 31.9481 61.3793 32.8459 59.4788 33.5986C54.344 35.3792 48.7574 35.3792 43.6226 33.5986C41.7076 32.8459 40.9533 31.9481 40.9533 31.4414V27.8946H40.8228ZM38.2841 8.84507V10.7415C38.0375 10.6257 37.9068 10.6251 37.6602 10.4948C37.0092 10.2073 36.3281 9.99369 35.6293 9.85794L38.2841 8.84507ZM20.9047 12.898C26.1007 11.2188 31.6954 11.2188 36.8915 12.898C38.9224 13.6652 39.5607 14.5627 39.5607 15.0693C39.5607 15.576 38.7919 16.4593 36.8915 17.2265C31.7567 19.007 26.17 19.007 21.0352 17.2265C19.0042 16.4593 18.3805 15.576 18.3805 15.0693C18.1193 14.5627 18.8882 13.6652 20.9047 12.898ZM18.1192 18.7462C18.6802 19.0953 19.2727 19.3907 19.8891 19.629C25.6354 21.6749 31.9139 21.6749 37.6602 19.629C38.2855 19.4112 38.8804 19.1146 39.4302 18.7462V21.5403C38.8693 22.0983 38.4728 22.7992 38.2841 23.5667C37.7781 23.9009 37.2258 24.1591 36.6448 24.3336C31.51 26.1141 25.9233 26.1141 20.7885 24.3336C18.7575 23.5664 18.1192 22.6838 18.1192 22.1771V18.7462ZM15.5805 17.8634V22.4231C15.5805 23.4509 16.3493 25.3468 19.8891 26.751C25.6387 28.7775 31.9106 28.7775 37.6602 26.751C37.9068 26.6207 38.0375 26.6211 38.2841 26.4909V31.4414C38.4146 32.4692 39.0529 34.3659 42.6071 35.77C48.3518 37.7966 54.6191 37.7966 60.3638 35.77C63.918 34.3659 64.5417 32.4692 64.6723 31.4414V26.4909C64.8584 26.6322 65.0787 26.7216 65.3107 26.751C71.0553 28.7776 77.3227 28.7776 83.0673 26.751C86.6215 25.3468 87.2598 23.4509 87.3904 22.4231V17.9793L98.2852 22.3072L51.4854 40.9666L4.67119 22.3072L15.5805 17.8634ZM59.4788 64.2146C61.5098 64.9673 62.1336 65.8645 62.1336 66.3711C62.1336 66.8778 61.3793 67.7611 59.4788 68.5283C54.344 70.3088 48.7574 70.3088 43.6226 68.5283C41.5916 67.7611 40.9533 66.8778 40.9533 66.3711C40.9533 65.8645 41.7076 64.9673 43.6226 64.2146C48.7709 62.516 54.3305 62.516 59.4788 64.2146ZM57.3173 61.0297C58.3539 60.8133 59.3723 60.5183 60.3638 60.1469C60.56 60.0272 60.7763 59.9439 61.0022 59.9009V62.3034C60.814 62.1682 60.5941 62.0836 60.3638 62.0574C59.4047 61.5665 58.3781 61.2202 57.3173 61.0297ZM51.4854 72.4653C54.5134 72.5078 57.5232 71.9928 60.3638 70.9457C60.9909 70.7259 61.586 70.424 62.1336 70.048V73.609C62.1336 74.1156 61.3793 75.0135 59.4788 75.7662C54.344 77.5467 48.7574 77.5467 43.6226 75.7662C41.7076 75.0135 40.9533 74.1156 40.9533 73.609V70.048C41.5167 70.3967 42.1088 70.6971 42.7231 70.9457C45.5203 72.0042 48.4944 72.5198 51.4854 72.4653ZM41.9689 62.1733V59.9009C42.23 60.0167 42.346 60.0166 42.6071 60.1469C43.5927 60.5358 44.6126 60.8312 45.6536 61.0297C44.623 61.2754 43.6062 61.5751 42.6071 61.9273C42.3778 61.9577 42.1591 62.042 41.9689 62.1733ZM2.52418 39.953V24.2036L50.2088 43.2538V59.1333L2.52418 39.953ZM20.9047 55.1963C23.4679 54.2846 26.1778 53.8522 28.8981 53.9219C29.4958 53.9004 30.0941 53.9445 30.6824 54.0526L39.5607 57.6136C39.4301 58.1203 38.6758 58.8729 36.8915 59.6401C31.7567 61.4206 26.17 61.4206 21.0352 59.6401C19.0042 58.8729 18.3805 57.9902 18.3805 57.4836C18.1193 56.8466 18.8882 55.9635 20.9047 55.1963ZM18.1192 61.0297C18.6827 61.3783 19.2747 61.6788 19.8891 61.9273C25.6387 63.9539 31.9106 63.9539 37.6602 61.9273C38.286 61.7046 38.8809 61.4028 39.4302 61.0297V63.8237C38.8682 64.3867 38.4718 65.0922 38.2841 65.8643C37.7716 66.1869 37.221 66.445 36.6448 66.6319C31.5075 68.398 25.9257 68.398 20.7885 66.6319C18.7575 65.8647 18.1192 64.9672 18.1192 64.4606V61.0297ZM50.2088 119.96L2.52418 100.911V85.0446L50.2088 104.095V119.96ZM50.2088 101.417L2.52418 82.3672V66.5019L50.2088 85.5514V101.417ZM100.447 100.78L52.7476 119.96V104.095L100.447 85.0446V100.78ZM100.447 82.2513L52.7476 101.417V85.5514L100.447 66.5019V82.2513ZM87.3904 64.7214V60.2769L98.2852 64.5906L51.4854 83.2641L4.67119 64.5906L15.5805 60.2769V64.8515C15.5805 65.8648 16.3493 67.761 19.8891 69.1652C25.6387 71.1917 31.9106 71.1917 37.6602 69.1652C37.9068 69.0349 38.0375 69.0347 38.2841 68.9044V73.8698C38.4146 74.8831 39.0529 76.7794 42.6071 78.1835C48.3518 80.2102 54.6191 80.2102 60.3638 78.1835C63.918 76.7794 64.5417 74.8831 64.6723 73.8698V68.9044C64.8584 69.0457 65.0787 69.1358 65.3107 69.1652C71.0553 71.1918 77.3227 71.1918 83.0673 69.1652C86.6215 67.761 87.3904 65.865 87.3904 64.7214ZM84.8516 64.4606C84.8516 65.0975 84.0828 65.9951 82.1824 66.7479C77.0476 68.5284 71.4609 68.5284 66.3261 66.7479C65.7336 66.538 65.176 66.2399 64.6723 65.8643C64.5135 65.1474 64.1626 64.4872 63.6569 63.9538V61.0297C64.2238 61.381 64.8209 61.6815 65.4412 61.9273C71.1859 63.954 77.4532 63.954 83.1978 61.9273C83.825 61.7076 84.4201 61.4056 84.9676 61.0297V64.4606H84.8516ZM82.1824 55.1963C84.2134 55.9635 84.8516 56.8461 84.8516 57.3528C84.8516 57.8594 84.0828 58.7573 82.1824 59.51C77.0476 61.2905 71.4609 61.2905 66.3261 59.51C64.4257 58.7573 63.7874 57.9902 63.6569 57.4836L72.5352 53.9219C73.1735 53.9219 73.6812 53.7918 74.3195 53.7918C77.0047 53.7732 79.6703 54.2495 82.1824 55.1963ZM100.447 39.953L52.7476 59.1333V43.2538L100.447 24.2036V39.953Z" fill="#000066"/>
</g>
<defs>
<clipPath id="clip0_20_47">
<rect width="103" height="123" fill="white"/>
</clipPath>
</defs>
</svg>
