<svg width="147" height="87" viewBox="0 0 147 87" fill="none" xmlns="http://www.w3.org/2000/svg">
<g clip-path="url(#clip0_20_49)">
<path fill-rule="evenodd" clip-rule="evenodd" d="M69.3414 63.4186C66.5402 63.4326 63.8374 64.4612 61.7264 66.3162C59.6154 68.1712 58.237 70.729 57.8426 73.523H52.5098C52.0865 70.5688 50.5683 67.8856 48.2607 66.0136C45.9531 64.1417 43.0274 63.2198 40.0723 63.4335C37.1172 63.6473 34.3522 64.981 32.3336 67.1658C30.3151 69.3507 29.1931 72.2247 29.1931 75.2095C29.1931 78.1944 30.3151 81.0684 32.3336 83.2533C34.3522 85.4381 37.1172 86.7711 40.0723 86.9848C43.0274 87.1986 45.9531 86.2774 48.2607 84.4054C50.5683 82.5335 52.0865 79.8503 52.5098 76.8961H57.8426C58.1753 79.1159 59.1333 81.1925 60.6031 82.8799C62.0729 84.5673 63.9927 85.7941 66.1342 86.4147C68.2757 87.0353 70.549 87.0239 72.6841 86.3812C74.8191 85.7385 76.7262 84.4914 78.1787 82.789C79.6312 81.0865 80.5682 79 80.8782 76.7769C81.1883 74.5537 80.8585 72.2874 79.9278 70.2475C78.9972 68.2077 77.505 66.4804 75.6284 65.2699C73.7518 64.0593 71.5697 63.4166 69.3414 63.4186ZM41.011 83.4746C39.3557 83.4807 37.7358 82.9911 36.3566 82.069C34.9773 81.1469 33.9007 79.8332 33.2631 78.2942C32.6255 76.7552 32.4557 75.0602 32.7749 73.4239C33.0942 71.7875 33.8883 70.2841 35.0566 69.1028C36.225 67.9214 37.7149 67.1156 39.3379 66.788C40.9609 66.4604 42.6441 66.6252 44.174 67.262C45.7038 67.8988 47.0116 68.9791 47.9319 70.3653C48.8521 71.7515 49.3435 73.3817 49.3435 75.0493C49.3124 77.2688 48.4255 79.3891 46.8703 80.9615C45.3152 82.534 43.2139 83.4352 41.011 83.4746ZM69.3414 83.4746C67.6861 83.4807 66.0663 82.9911 64.6871 82.069C63.3078 81.1469 62.2313 79.8332 61.5937 78.2942C60.956 76.7552 60.786 75.0602 61.1052 73.4239C61.4245 71.7875 62.2186 70.2841 63.387 69.1028C64.5553 67.9214 66.0454 67.1156 67.6684 66.788C69.2915 66.4604 70.9744 66.6252 72.5043 67.262C74.0342 67.8988 75.3421 68.9791 76.2624 70.3653C77.1827 71.7515 77.6738 73.3817 77.6738 75.0493C77.6711 77.2777 76.7933 79.4143 75.2321 80.9929C73.6709 82.5714 71.5532 83.4637 69.3414 83.4746ZM28.5123 65.0977C28.5261 65.3225 28.4924 65.5472 28.4137 65.758C28.3351 65.9688 28.2131 66.1607 28.0557 66.3207C27.8984 66.4807 27.7092 66.6055 27.5007 66.6866C27.2922 66.7678 27.0689 66.8035 26.8457 66.7917H12.6805C12.2365 66.7917 11.8107 66.6139 11.4967 66.2976C11.1828 65.9813 11.0065 65.5525 11.0065 65.1052C11.0065 64.6579 11.1828 64.229 11.4967 63.9127C11.8107 63.5964 12.2365 63.4186 12.6805 63.4186H26.8457C27.068 63.405 27.2907 63.4389 27.499 63.5185C27.7073 63.598 27.8965 63.7212 28.054 63.8799C28.2116 64.0386 28.3338 64.2298 28.4128 64.4396C28.4918 64.6495 28.5258 64.8737 28.5123 65.0977ZM145.318 0.0153933H1.68162C1.45838 0.00356557 1.23529 0.0393096 1.02676 0.120477C0.818239 0.201643 0.629124 0.326433 0.47177 0.486405C0.314416 0.646376 0.192409 0.838277 0.113734 1.04908C0.0350596 1.25989 0.00140364 1.48461 0.0151633 1.70939V55.8325C0.00167571 56.0565 0.0354956 56.2815 0.114474 56.4913C0.193452 56.7012 0.315912 56.8916 0.473435 57.0503C0.630958 57.209 0.819941 57.3322 1.02824 57.4117C1.23654 57.4913 1.45926 57.5252 1.68162 57.5116H124.654V63.2509H82.0067C81.5627 63.2509 81.1369 63.4287 80.8229 63.745C80.509 64.0613 80.3327 64.4902 80.3327 64.9375C80.3327 65.3848 80.509 65.8136 80.8229 66.1299C81.1369 66.4462 81.5627 66.624 82.0067 66.624H124.654V82.467C124.654 82.9123 124.829 83.3394 125.142 83.6542C125.454 83.9691 125.878 84.1461 126.32 84.1461C126.762 84.1461 127.186 83.9691 127.499 83.6542C127.811 83.3394 127.987 82.9123 127.987 82.467V57.5116H145.318C145.541 57.5252 145.763 57.4913 145.972 57.4117C146.18 57.3322 146.369 57.209 146.527 57.0503C146.684 56.8916 146.807 56.7012 146.886 56.4913C146.965 56.2815 146.998 56.0565 146.985 55.8325V1.70939C146.984 1.26282 146.809 0.834911 146.497 0.517706C146.185 0.200501 145.762 0.0198147 145.318 0.0153933ZM143.652 54.1385H3.34826V3.38849H143.652V54.1385Z" fill="#000066"/>
</g>
<defs>
<clipPath id="clip0_20_49">
<rect width="147" height="87" fill="white"/>
</clipPath>
</defs>
</svg>
