<svg width="132" height="86" viewBox="0 0 132 86" fill="none" xmlns="http://www.w3.org/2000/svg">
<g clip-path="url(#clip0_19_45)">
<path fill-rule="evenodd" clip-rule="evenodd" d="M1.69235 66.1533H110C110.226 66.1665 110.452 66.1332 110.664 66.0547C110.875 65.9763 111.067 65.8549 111.227 65.6986C111.387 65.5423 111.511 65.3545 111.591 65.1479C111.671 64.9412 111.706 64.72 111.692 64.4994V1.65326C111.706 1.43262 111.671 1.21147 111.591 1.00481C111.511 0.798141 111.387 0.610364 111.227 0.454062C111.067 0.297761 110.875 0.176358 110.664 0.0979364C110.452 0.0195144 110.226 -0.013847 110 -0.000583717H1.69235C1.46657 -0.013847 1.24028 0.0195144 1.02881 0.0979364C0.81734 0.176358 0.625608 0.297761 0.465672 0.454062C0.305736 0.610364 0.18151 0.798141 0.101264 1.00481C0.0210181 1.21147 -0.0135323 1.43262 3.93894e-05 1.65326V64.4994C-0.0135323 64.72 0.0210181 64.9412 0.101264 65.1479C0.18151 65.3545 0.305736 65.5423 0.465672 65.6986C0.625608 65.8549 0.81734 65.9763 1.02881 66.0547C1.24028 66.1332 1.46657 66.1665 1.69235 66.1533ZM3.38466 3.30711H108.308V62.8456H3.38466V3.30711ZM8.46158 8.26865H22V11.5763H8.46158V8.26865ZM89.6924 54.5763H103.231V57.884H89.6924V54.5763ZM55.8462 11.5763C51.495 11.5763 47.2415 12.8373 43.6237 15.1998C40.0058 17.5622 37.1859 20.9197 35.5207 24.8483C33.8556 28.7769 33.42 33.1001 34.2689 37.2707C35.1177 41.4413 37.2131 45.2723 40.2899 48.2791C43.3666 51.2859 47.2867 53.3333 51.5543 54.1629C55.8219 54.9925 60.2452 54.5667 64.2652 52.9394C68.2852 51.3122 71.7211 48.5571 74.1385 45.0215C76.5559 41.4858 77.8462 37.3286 77.8462 33.0763C77.852 30.2513 77.2868 27.4529 76.1832 24.8418C75.0797 22.2308 73.4594 19.8582 71.4154 17.8606C69.3713 15.863 66.944 14.2796 64.2722 13.2011C61.6004 12.1226 58.7369 11.5707 55.8462 11.5763ZM55.8462 51.2686C52.1644 51.2686 48.5652 50.2014 45.5039 48.2024C42.4427 46.2034 40.0569 43.3624 38.648 40.0382C37.239 36.7139 36.8703 33.0561 37.5886 29.5272C38.3069 25.9982 40.0799 22.7564 42.6833 20.2122C45.2867 17.668 48.6035 15.9356 52.2145 15.2337C55.8255 14.5317 59.5684 14.892 62.9699 16.269C66.3714 17.6459 69.279 19.9774 71.3245 22.9691C73.3699 25.9608 74.4616 29.4782 74.4616 33.0763C74.4687 35.4673 73.9923 37.8359 73.0593 40.0462C72.1263 42.2566 70.7552 44.2651 69.0252 45.9558C67.2952 47.6465 65.2403 48.9865 62.9786 49.8982C60.7169 50.81 58.2928 51.2756 55.8462 51.2686ZM10.1539 74.4225C10.1403 74.6431 10.1749 74.8643 10.2551 75.0709C10.3354 75.2776 10.4596 75.4654 10.6195 75.6217C10.7795 75.778 10.9712 75.8994 11.1827 75.9778C11.3941 76.0562 11.6204 76.0896 11.8462 76.0763H120.154C120.38 76.0896 120.606 76.0562 120.817 75.9778C121.029 75.8994 121.221 75.778 121.381 75.6217C121.541 75.4654 121.665 75.2776 121.745 75.0709C121.825 74.8643 121.86 74.6431 121.846 74.4225V11.5763C121.846 11.1377 121.668 10.7172 121.35 10.407C121.033 10.0969 120.603 9.92249 120.154 9.92249C119.705 9.92249 119.275 10.0969 118.957 10.407C118.64 10.7172 118.462 11.1377 118.462 11.5763V72.7686H11.8462C11.6204 72.7554 11.3941 72.7887 11.1827 72.8672C10.9712 72.9456 10.7795 73.067 10.6195 73.2233C10.4596 73.3796 10.3354 73.5674 10.2551 73.774C10.1749 73.9807 10.1403 74.2018 10.1539 74.4225ZM20.3077 84.3456C20.2942 84.5662 20.3287 84.7873 20.409 84.994C20.4892 85.2007 20.6134 85.3885 20.7734 85.5448C20.9333 85.7011 21.125 85.8225 21.3365 85.9009C21.548 85.9793 21.7743 86.0127 22 85.9994H130.308C130.534 86.0127 130.76 85.9793 130.971 85.9009C131.183 85.8225 131.374 85.7011 131.534 85.5448C131.694 85.3885 131.819 85.2007 131.899 84.994C131.979 84.7873 132.014 84.5662 132 84.3456V21.4994C132 21.0608 131.822 20.6402 131.504 20.3301C131.187 20.0199 130.757 19.8456 130.308 19.8456C129.859 19.8456 129.429 20.0199 129.111 20.3301C128.794 20.6402 128.615 21.0608 128.615 21.4994V82.6917H22C21.7743 82.6784 21.548 82.7118 21.3365 82.7902C21.125 82.8687 20.9333 82.9901 20.7734 83.1464C20.6134 83.3027 20.4892 83.4904 20.409 83.6971C20.3287 83.9038 20.2942 84.1249 20.3077 84.3456Z" fill="#000066"/>
</g>
<defs>
<clipPath id="clip0_19_45">
<rect width="132" height="86" fill="white"/>
</clipPath>
</defs>
</svg>
